<svg width="96" height="116" viewBox="0 0 96 116" fill="none" xmlns="http://www.w3.org/2000/svg">
<ellipse cx="48.4588" cy="50.1315" rx="29.161" ry="29.2946" fill="#34BCEE"/>
<path fill-rule="evenodd" clip-rule="evenodd" d="M80.4358 29.3072C73.7535 18.4141 61.7699 11.1526 48.098 11.1526C27.1347 11.1526 10.1406 28.2246 10.1406 49.284C10.1406 66.2351 21.1509 80.6027 36.3791 85.5634C18.4909 81.7137 5.0791 65.7408 5.0791 46.621C5.0791 24.6257 22.8285 6.79492 44.7235 6.79492C60.4419 6.79492 74.0237 15.9845 80.4358 29.3072Z" fill="#8FD9F2"/>
<path fill-rule="evenodd" clip-rule="evenodd" d="M47.9769 95.889C74.1977 95.889 95.4538 74.5354 95.4538 48.1945C95.4538 21.8536 74.1977 0.5 47.9769 0.5C47.5312 0.5 47.087 0.506169 46.6443 0.518427C70.6865 1.20517 89.9665 20.9999 89.9665 45.3185C89.9665 70.071 69.9921 90.1369 45.3525 90.1369C20.7129 90.1369 0.738489 70.071 0.738489 45.3185C0.738489 44.4292 0.76427 43.546 0.815119 42.6696C0.606979 44.4822 0.5 46.3258 0.5 48.1945C0.5 74.5354 21.7561 95.889 47.9769 95.889Z" fill="#8FD9F2"/>
<ellipse cx="77.2582" cy="68.8948" rx="3.49449" ry="3.51051" fill="#8FD9F2"/>
<ellipse cx="20.9849" cy="30.0368" rx="3.85599" ry="3.87366" fill="#8FD9F2"/>
<path d="M50.3867 99.0364L70.8717 95.889L86.5367 82.8154L90.7542 99.2785L78.3427 112.836L59.7857 113.078L50.3867 99.0364Z" fill="#34BCEE"/>
<path d="M69.1846 114.289L78.5836 114.047L85.0905 107.026L85.934 108.358L79.3066 115.258L69.6666 115.5L69.1846 114.289Z" fill="#34BCEE"/>
<path d="M15.9238 63.3642V43.1931H19.4364L26.9751 53.4546H25.2998L32.6763 43.1931H36.1889V63.3642H32.4872V47.3897L33.9192 47.7417L26.2725 57.9491H25.8402L18.3827 47.7417L19.5986 47.3897V63.3642H15.9238Z" fill="#32382D"/>
<path d="M47.2287 63.6891C45.9498 63.6891 44.7609 63.4545 43.6621 62.9852C42.5813 62.5158 41.6446 61.866 40.852 61.0357C40.0774 60.1874 39.51 59.2036 39.1497 58.0845L42.203 56.7578C42.6894 57.913 43.3919 58.8246 44.3106 59.4924C45.2292 60.1422 46.265 60.4671 47.4179 60.4671C48.0664 60.4671 48.6248 60.3679 49.0931 60.1693C49.5795 59.9527 49.9488 59.6639 50.2009 59.3029C50.4711 58.9419 50.6062 58.5087 50.6062 58.0033C50.6062 57.4076 50.4261 56.9203 50.0658 56.5412C49.7236 56.1441 49.2012 55.8373 48.4987 55.6207L44.6348 54.3752C43.0676 53.8878 41.8878 53.1568 41.0952 52.1821C40.3026 51.2074 39.9063 50.0612 39.9063 48.7435C39.9063 47.5883 40.1855 46.5685 40.7439 45.684C41.3203 44.7995 42.1129 44.1136 43.1217 43.6263C44.1484 43.1209 45.3193 42.8682 46.6343 42.8682C47.8412 42.8682 48.949 43.0848 49.9578 43.518C50.9665 43.9331 51.8312 44.5198 52.5517 45.2779C53.2902 46.0179 53.8396 46.8934 54.1999 47.9042L51.1737 49.2579C50.7774 48.2471 50.1829 47.471 49.3903 46.9295C48.5978 46.3699 47.6791 46.0901 46.6343 46.0901C46.0218 46.0901 45.4814 46.1984 45.0131 46.415C44.5447 46.6136 44.1755 46.9024 43.9053 47.2814C43.6531 47.6425 43.527 48.0757 43.527 48.5811C43.527 49.1406 43.7071 49.637 44.0674 50.0702C44.4276 50.4854 44.9771 50.8103 45.7156 51.0449L49.4174 52.2092C51.0206 52.7326 52.2184 53.4546 53.011 54.3752C53.8216 55.2958 54.2269 56.4329 54.2269 57.7867C54.2269 58.9419 53.9297 59.9617 53.3353 60.8462C52.7408 61.7307 51.9212 62.4256 50.8764 62.931C49.8317 63.4364 48.6158 63.6891 47.2287 63.6891Z" fill="#32382D"/>
<path d="M57.2386 63.3642V48.6352H60.7783V63.3642H57.2386ZM59.0084 46.9836C58.031 46.9836 57.2386 46.1912 57.2386 45.2138V44.9629C57.2386 43.9854 58.031 43.1931 59.0084 43.1931C59.9859 43.1931 60.7783 43.9854 60.7783 44.9629V45.2138C60.7783 46.1912 59.9859 46.9836 59.0084 46.9836Z" fill="#32382D"/>
<path d="M64.3436 63.3642V43.1931H67.8563L75.3949 53.4546H73.7196L81.0961 43.1931H84.6087V63.3642H80.907V47.3897L82.339 47.7417L74.6923 57.9491H74.26L66.8025 47.7417L68.0184 47.3897V63.3642H64.3436Z" fill="#32382D"/>
</svg>
